<mxfile host="app.diagrams.net" modified="2023-12-27T19:05:51.470Z" agent="Mozilla/5.0 (Windows NT 10.0; Win64; x64) AppleWebKit/537.36 (KHTML, like Gecko) Chrome/120.0.0.0 Safari/537.36" etag="RxVMNNbvqEgkQuUcjX6i" version="22.1.15" type="github">
  <diagram name="Page-1" id="tn_hpQWI-_ZkrDqxXo_J">
    <mxGraphModel dx="794" dy="420" grid="1" gridSize="10" guides="1" tooltips="1" connect="1" arrows="1" fold="1" page="1" pageScale="1" pageWidth="850" pageHeight="1100" math="0" shadow="0">
      <root>
        <mxCell id="0" />
        <mxCell id="1" parent="0" />
        <mxCell id="Z986qpISXTSuvOpiPzl5-13" style="edgeStyle=orthogonalEdgeStyle;rounded=0;orthogonalLoop=1;jettySize=auto;html=1;exitX=0.5;exitY=1;exitDx=0;exitDy=0;labelBackgroundColor=none;strokeColor=#A8201A;fontColor=default;" edge="1" parent="1" source="Z986qpISXTSuvOpiPzl5-1">
          <mxGeometry relative="1" as="geometry">
            <mxPoint x="380" y="280" as="targetPoint" />
          </mxGeometry>
        </mxCell>
        <mxCell id="Z986qpISXTSuvOpiPzl5-24" style="edgeStyle=orthogonalEdgeStyle;rounded=0;orthogonalLoop=1;jettySize=auto;html=1;exitX=1;exitY=1;exitDx=0;exitDy=0;strokeColor=#A8201A;fontColor=#143642;fillColor=#FAE5C7;" edge="1" parent="1" source="Z986qpISXTSuvOpiPzl5-1" target="Z986qpISXTSuvOpiPzl5-21">
          <mxGeometry relative="1" as="geometry" />
        </mxCell>
        <mxCell id="Z986qpISXTSuvOpiPzl5-1" value="&lt;b&gt;&lt;font style=&quot;font-size: 27px;&quot;&gt;روند&lt;/font&gt;&lt;/b&gt;" style="rounded=0;whiteSpace=wrap;html=1;labelBackgroundColor=none;fillColor=#FAE5C7;strokeColor=#0F8B8D;fontColor=#143642;" vertex="1" parent="1">
          <mxGeometry x="320" y="80" width="120" height="60" as="geometry" />
        </mxCell>
        <mxCell id="Z986qpISXTSuvOpiPzl5-2" value="" style="endArrow=none;dashed=1;html=1;rounded=0;exitX=1;exitY=0.5;exitDx=0;exitDy=0;labelBackgroundColor=none;strokeColor=#A8201A;fontColor=default;" edge="1" parent="1" source="Z986qpISXTSuvOpiPzl5-1">
          <mxGeometry width="50" height="50" relative="1" as="geometry">
            <mxPoint x="380" y="250" as="sourcePoint" />
            <mxPoint x="560" y="110" as="targetPoint" />
          </mxGeometry>
        </mxCell>
        <mxCell id="Z986qpISXTSuvOpiPzl5-4" value="" style="endArrow=none;dashed=1;html=1;rounded=0;entryX=0;entryY=0.5;entryDx=0;entryDy=0;labelBackgroundColor=none;strokeColor=#A8201A;fontColor=default;" edge="1" parent="1" target="Z986qpISXTSuvOpiPzl5-1">
          <mxGeometry width="50" height="50" relative="1" as="geometry">
            <mxPoint x="200" y="110" as="sourcePoint" />
            <mxPoint x="430" y="200" as="targetPoint" />
          </mxGeometry>
        </mxCell>
        <mxCell id="Z986qpISXTSuvOpiPzl5-5" value="&lt;font style=&quot;font-size: 20px;&quot;&gt;نزولی&amp;nbsp;&lt;/font&gt;" style="ellipse;whiteSpace=wrap;html=1;labelBackgroundColor=none;fillColor=#FAE5C7;strokeColor=#0F8B8D;fontColor=#143642;" vertex="1" parent="1">
          <mxGeometry x="80" y="70" width="120" height="80" as="geometry" />
        </mxCell>
        <mxCell id="Z986qpISXTSuvOpiPzl5-6" value="&lt;font style=&quot;font-size: 20px;&quot;&gt;صعودی&amp;nbsp;&lt;/font&gt;" style="ellipse;whiteSpace=wrap;html=1;labelBackgroundColor=none;fillColor=#FAE5C7;strokeColor=#0F8B8D;fontColor=#143642;" vertex="1" parent="1">
          <mxGeometry x="570" y="70" width="120" height="80" as="geometry" />
        </mxCell>
        <mxCell id="Z986qpISXTSuvOpiPzl5-8" value="" style="endArrow=none;dashed=1;html=1;dashPattern=1 3;strokeWidth=2;rounded=0;entryX=0.5;entryY=1;entryDx=0;entryDy=0;labelBackgroundColor=none;strokeColor=#A8201A;fontColor=default;" edge="1" parent="1" target="Z986qpISXTSuvOpiPzl5-5">
          <mxGeometry width="50" height="50" relative="1" as="geometry">
            <mxPoint x="140" y="200" as="sourcePoint" />
            <mxPoint x="430" y="240" as="targetPoint" />
          </mxGeometry>
        </mxCell>
        <mxCell id="Z986qpISXTSuvOpiPzl5-9" value="&lt;span style=&quot;font-size: 20px;&quot;&gt;حمایت&lt;/span&gt;" style="shape=parallelogram;perimeter=parallelogramPerimeter;whiteSpace=wrap;html=1;fixedSize=1;labelBackgroundColor=none;fillColor=#FAE5C7;strokeColor=#0F8B8D;fontColor=#143642;" vertex="1" parent="1">
          <mxGeometry x="80" y="200" width="120" height="60" as="geometry" />
        </mxCell>
        <mxCell id="Z986qpISXTSuvOpiPzl5-10" value="&lt;font style=&quot;font-size: 20px;&quot;&gt;مقاومت&lt;/font&gt;" style="shape=parallelogram;perimeter=parallelogramPerimeter;whiteSpace=wrap;html=1;fixedSize=1;labelBackgroundColor=none;fillColor=#FAE5C7;strokeColor=#0F8B8D;fontColor=#143642;" vertex="1" parent="1">
          <mxGeometry x="570" y="190" width="120" height="60" as="geometry" />
        </mxCell>
        <mxCell id="Z986qpISXTSuvOpiPzl5-11" value="" style="endArrow=none;dashed=1;html=1;rounded=0;entryX=0.5;entryY=1;entryDx=0;entryDy=0;labelBackgroundColor=none;strokeColor=#A8201A;fontColor=default;" edge="1" parent="1" source="Z986qpISXTSuvOpiPzl5-10" target="Z986qpISXTSuvOpiPzl5-6">
          <mxGeometry width="50" height="50" relative="1" as="geometry">
            <mxPoint x="380" y="290" as="sourcePoint" />
            <mxPoint x="430" y="240" as="targetPoint" />
          </mxGeometry>
        </mxCell>
        <mxCell id="Z986qpISXTSuvOpiPzl5-15" style="edgeStyle=orthogonalEdgeStyle;rounded=0;orthogonalLoop=1;jettySize=auto;html=1;exitX=0.5;exitY=1;exitDx=0;exitDy=0;labelBackgroundColor=none;strokeColor=#A8201A;fontColor=default;" edge="1" parent="1" source="Z986qpISXTSuvOpiPzl5-14">
          <mxGeometry relative="1" as="geometry">
            <mxPoint x="380" y="400" as="targetPoint" />
          </mxGeometry>
        </mxCell>
        <mxCell id="Z986qpISXTSuvOpiPzl5-14" value="&lt;span style=&quot;font-size: 27px;&quot;&gt;&lt;b&gt;حجم&lt;/b&gt;&lt;/span&gt;" style="rounded=0;whiteSpace=wrap;html=1;labelBackgroundColor=none;fillColor=#FAE5C7;strokeColor=#0F8B8D;fontColor=#143642;" vertex="1" parent="1">
          <mxGeometry x="320" y="280" width="120" height="60" as="geometry" />
        </mxCell>
        <mxCell id="Z986qpISXTSuvOpiPzl5-25" style="edgeStyle=orthogonalEdgeStyle;rounded=0;orthogonalLoop=1;jettySize=auto;html=1;exitX=1;exitY=0.5;exitDx=0;exitDy=0;entryX=0;entryY=0.5;entryDx=0;entryDy=0;strokeColor=#A8201A;fontColor=#143642;fillColor=#FAE5C7;" edge="1" parent="1" source="Z986qpISXTSuvOpiPzl5-16" target="Z986qpISXTSuvOpiPzl5-21">
          <mxGeometry relative="1" as="geometry" />
        </mxCell>
        <mxCell id="Z986qpISXTSuvOpiPzl5-16" value="&lt;span style=&quot;font-size: 27px;&quot;&gt;&lt;b&gt;پرایس اکشن&lt;/b&gt;&lt;/span&gt;" style="rounded=0;whiteSpace=wrap;html=1;labelBackgroundColor=none;fillColor=#FAE5C7;strokeColor=#0F8B8D;fontColor=#143642;" vertex="1" parent="1">
          <mxGeometry x="320" y="400" width="120" height="60" as="geometry" />
        </mxCell>
        <mxCell id="Z986qpISXTSuvOpiPzl5-19" value="&lt;font style=&quot;font-size: 20px;&quot;&gt;شکست یا برگشت&lt;/font&gt;" style="whiteSpace=wrap;html=1;shape=mxgraph.basic.cloud_callout;direction=west;labelBackgroundColor=none;fillColor=#FAE5C7;strokeColor=#0F8B8D;fontColor=#143642;" vertex="1" parent="1">
          <mxGeometry x="140" y="460" width="180" height="120" as="geometry" />
        </mxCell>
        <mxCell id="Z986qpISXTSuvOpiPzl5-21" value="&lt;font style=&quot;font-size: 20px;&quot;&gt;کندل استیک ها&lt;/font&gt;" style="ellipse;whiteSpace=wrap;html=1;labelBackgroundColor=none;fillColor=#FAE5C7;strokeColor=#0F8B8D;fontColor=#143642;" vertex="1" parent="1">
          <mxGeometry x="510" y="390" width="120" height="80" as="geometry" />
        </mxCell>
        <mxCell id="Z986qpISXTSuvOpiPzl5-22" value="&lt;font style=&quot;font-size: 20px;&quot;&gt;پین بار&lt;br&gt;آففا&lt;br&gt;شدو های بلند&lt;br&gt;....و&lt;/font&gt;" style="strokeWidth=2;html=1;shape=mxgraph.flowchart.annotation_2;align=right;labelPosition=right;pointerEvents=1;labelBackgroundColor=none;fillColor=#FAE5C7;strokeColor=#0F8B8D;fontColor=#143642;" vertex="1" parent="1">
          <mxGeometry x="630" y="380" width="60" height="100" as="geometry" />
        </mxCell>
        <mxCell id="Z986qpISXTSuvOpiPzl5-26" style="edgeStyle=orthogonalEdgeStyle;rounded=0;orthogonalLoop=1;jettySize=auto;html=1;exitX=0.5;exitY=0;exitDx=0;exitDy=0;exitPerimeter=0;strokeColor=#A8201A;fontColor=#143642;fillColor=#FAE5C7;" edge="1" parent="1" source="Z986qpISXTSuvOpiPzl5-19" target="Z986qpISXTSuvOpiPzl5-19">
          <mxGeometry relative="1" as="geometry" />
        </mxCell>
      </root>
    </mxGraphModel>
  </diagram>
</mxfile>
